# xmcd
#
# Track frame offsets: 
#        150
#        20639
#        35542
#        48382
#        61438
#        75836
#        88575
#        105694
#        123629
#        138058
#
# Disc length: 2030 seconds
#
# Revision: 0
# Processed by: cddbd v1.5.2PL0 Copyright (c) Steve Scherf et al.
# Submitted via: ExactAudioCopy v1.0b4
#
DISCID=7b07ec0a
DTITLE=Bo Diddley - The Black Gladiator
DYEAR=1970
DGENRE=Blues
TTITLE0=Elephant Man
TTITLE1=You, Bo Diddley
TTITLE2=Black Soul
TTITLE3=Power House
TTITLE4=If the Bible's Right
TTITLE5=I've Got a Feeling
TTITLE6=Shut Up, Woman
TTITLE7=Hot Buttered Blues
TTITLE8=Funky Fly
TTITLE9=I Don't Like You
EXTD=
EXTT0=
EXTT1=
EXTT2=
EXTT3=
EXTT4=
EXTT5=
EXTT6=
EXTT7=
EXTT8=
EXTT9=
PLAYORDER=
